<svg xmlns="http://www.w3.org/2000/svg" xmlns:xlink="http://www.w3.org/1999/xlink" width="500" zoomAndPan="magnify" viewBox="0 0 375 374.999991" height="500" preserveAspectRatio="xMidYMid meet" version="1.0"><defs><g/></defs><g fill="#000000" fill-opacity="1"><g transform="translate(44.780191, 176.249988)"><g><path d="M 2.625 0 L 2.625 -24.4375 L 11.828125 -24.4375 C 13.804688 -24.4375 15.585938 -24.191406 17.171875 -23.703125 C 18.753906 -23.210938 20.015625 -22.375 20.953125 -21.1875 C 21.898438 -20 22.375 -18.347656 22.375 -16.234375 C 22.375 -14.140625 21.898438 -12.492188 20.953125 -11.296875 C 20.015625 -10.097656 18.753906 -9.253906 17.171875 -8.765625 C 15.585938 -8.273438 13.804688 -8.03125 11.828125 -8.03125 L 7.859375 -8.03125 L 7.859375 0 Z M 7.859375 -12.640625 L 12.078125 -12.640625 C 12.960938 -12.640625 13.773438 -12.738281 14.515625 -12.9375 C 15.265625 -13.132812 15.863281 -13.492188 16.3125 -14.015625 C 16.769531 -14.535156 17 -15.273438 17 -16.234375 C 17 -17.179688 16.769531 -17.914062 16.3125 -18.4375 C 15.863281 -18.96875 15.265625 -19.332031 14.515625 -19.53125 C 13.773438 -19.726562 12.960938 -19.828125 12.078125 -19.828125 L 7.859375 -19.828125 Z M 7.859375 -12.640625 "/></g></g></g><g fill="#000000" fill-opacity="1"><g transform="translate(71.382404, 176.249988)"><g><path d="M 2.625 0 L 2.625 -24.4375 L 19.828125 -24.4375 L 19.828125 -19.828125 L 7.859375 -19.828125 L 7.859375 -14.625 L 18.78125 -14.625 L 18.78125 -10.015625 L 7.859375 -10.015625 L 7.859375 -4.609375 L 20.03125 -4.609375 L 20.03125 0 Z M 2.625 0 "/></g></g></g><g fill="#000000" fill-opacity="1"><g transform="translate(96.308928, 176.249988)"><g><path d="M 15.78125 -24.4375 L 25.71875 0 L 20.28125 0 L 18.5 -4.53125 L 7.328125 -4.53125 L 5.546875 0 L 0.109375 0 L 10.046875 -24.4375 Z M 8.96875 -8.9375 L 16.859375 -8.9375 L 13.4375 -17.625 C 13.269531 -18.070312 13.097656 -18.675781 12.921875 -19.4375 C 12.828125 -19.019531 12.738281 -18.675781 12.65625 -18.40625 C 12.570312 -18.144531 12.472656 -17.882812 12.359375 -17.625 Z M 8.96875 -8.9375 "/></g></g></g><g fill="#000000" fill-opacity="1"><g transform="translate(125.494495, 176.249988)"><g><path d="M 2.625 0 L 2.625 -24.4375 L 7.859375 -24.4375 L 7.859375 -14.734375 L 11.3125 -14.734375 L 17.984375 -24.4375 L 23.8125 -24.4375 L 15.46875 -12.5625 L 24.296875 0 L 18.4375 0 L 11.3125 -9.984375 L 7.859375 -9.984375 L 7.859375 0 Z M 2.625 0 "/></g></g></g><g fill="#000000" fill-opacity="1"><g transform="translate(153.004374, 176.249988)"><g/></g></g><g fill="#000000" fill-opacity="1"><g transform="translate(164.106458, 176.249988)"><g><path d="M 14.234375 0.484375 C 12.078125 0.484375 10.179688 0.140625 8.546875 -0.546875 C 6.921875 -1.234375 5.566406 -2.175781 4.484375 -3.375 C 3.398438 -4.570312 2.585938 -5.929688 2.046875 -7.453125 C 1.515625 -8.972656 1.25 -10.5625 1.25 -12.21875 C 1.25 -13.875 1.515625 -15.460938 2.046875 -16.984375 C 2.585938 -18.503906 3.398438 -19.863281 4.484375 -21.0625 C 5.566406 -22.257812 6.921875 -23.203125 8.546875 -23.890625 C 10.179688 -24.578125 12.078125 -24.921875 14.234375 -24.921875 C 16.398438 -24.921875 18.296875 -24.578125 19.921875 -23.890625 C 21.554688 -23.203125 22.914062 -22.257812 24 -21.0625 C 25.082031 -19.863281 25.890625 -18.503906 26.421875 -16.984375 C 26.960938 -15.460938 27.234375 -13.875 27.234375 -12.21875 C 27.234375 -10.5625 26.960938 -8.972656 26.421875 -7.453125 C 25.890625 -5.929688 25.082031 -4.570312 24 -3.375 C 22.914062 -2.175781 21.554688 -1.234375 19.921875 -0.546875 C 18.296875 0.140625 16.398438 0.484375 14.234375 0.484375 Z M 14.234375 -4.359375 C 15.910156 -4.359375 17.3125 -4.710938 18.4375 -5.421875 C 19.570312 -6.140625 20.421875 -7.097656 20.984375 -8.296875 C 21.554688 -9.492188 21.84375 -10.800781 21.84375 -12.21875 C 21.84375 -13.65625 21.554688 -14.96875 20.984375 -16.15625 C 20.421875 -17.34375 19.570312 -18.289062 18.4375 -19 C 17.3125 -19.71875 15.910156 -20.078125 14.234375 -20.078125 C 12.566406 -20.078125 11.164062 -19.71875 10.03125 -19 C 8.90625 -18.289062 8.054688 -17.34375 7.484375 -16.15625 C 6.910156 -14.96875 6.625 -13.65625 6.625 -12.21875 C 6.625 -10.800781 6.910156 -9.492188 7.484375 -8.296875 C 8.054688 -7.097656 8.90625 -6.140625 10.03125 -5.421875 C 11.164062 -4.710938 12.566406 -4.359375 14.234375 -4.359375 Z M 14.234375 -4.359375 "/></g></g></g><g fill="#000000" fill-opacity="1"><g transform="translate(195.910297, 176.249988)"><g><path d="M -0.25 0 L 8.515625 -12.671875 L 0.28125 -24.4375 L 6.453125 -24.4375 L 11.828125 -16.4375 L 17.203125 -24.4375 L 23.359375 -24.4375 L 15.109375 -12.671875 L 23.875 0 L 17.734375 0 L 11.828125 -8.90625 L 5.9375 0 Z M -0.25 0 "/></g></g></g><g fill="#000000" fill-opacity="1"><g transform="translate(222.896528, 176.249988)"><g><path d="M 9.671875 0 L 9.671875 -8.65625 L 0.109375 -24.4375 L 6.03125 -24.4375 L 12.28125 -13.515625 L 18.5 -24.4375 L 24.4375 -24.4375 L 14.875 -8.65625 L 14.875 0 Z M 9.671875 0 "/></g></g></g><g fill="#000000" fill-opacity="1"><g transform="translate(250.790424, 176.249988)"><g><path d="M 14.734375 0.484375 C 13.003906 0.484375 11.335938 0.238281 9.734375 -0.25 C 8.128906 -0.738281 6.691406 -1.492188 5.421875 -2.515625 C 4.160156 -3.535156 3.15625 -4.847656 2.40625 -6.453125 C 1.664062 -8.054688 1.296875 -9.976562 1.296875 -12.21875 C 1.296875 -14.425781 1.664062 -16.332031 2.40625 -17.9375 C 3.15625 -19.539062 4.160156 -20.859375 5.421875 -21.890625 C 6.691406 -22.929688 8.117188 -23.695312 9.703125 -24.1875 C 11.285156 -24.675781 12.914062 -24.921875 14.59375 -24.921875 C 17.238281 -24.921875 19.738281 -24.398438 22.09375 -23.359375 L 22.09375 -18.328125 C 21.164062 -18.953125 20.109375 -19.425781 18.921875 -19.75 C 17.734375 -20.082031 16.519531 -20.25 15.28125 -20.25 C 13.84375 -20.25 12.457031 -19.972656 11.125 -19.421875 C 9.800781 -18.878906 8.726562 -18.019531 7.90625 -16.84375 C 7.082031 -15.664062 6.671875 -14.125 6.671875 -12.21875 C 6.671875 -10.59375 6.929688 -9.253906 7.453125 -8.203125 C 7.972656 -7.148438 8.648438 -6.328125 9.484375 -5.734375 C 10.328125 -5.148438 11.226562 -4.734375 12.1875 -4.484375 C 13.15625 -4.242188 14.097656 -4.125 15.015625 -4.125 C 16.078125 -4.125 16.957031 -4.257812 17.65625 -4.53125 L 17.65625 -13.296875 L 22.6875 -13.296875 L 22.6875 -1.15625 C 21.476562 -0.644531 20.191406 -0.242188 18.828125 0.046875 C 17.472656 0.335938 16.109375 0.484375 14.734375 0.484375 Z M 14.734375 0.484375 "/></g></g></g><g fill="#000000" fill-opacity="1"><g transform="translate(278.614511, 176.249988)"><g><path d="M 2.625 0 L 2.625 -24.4375 L 19.828125 -24.4375 L 19.828125 -19.828125 L 7.859375 -19.828125 L 7.859375 -14.625 L 18.78125 -14.625 L 18.78125 -10.015625 L 7.859375 -10.015625 L 7.859375 -4.609375 L 20.03125 -4.609375 L 20.03125 0 Z M 2.625 0 "/></g></g></g><g fill="#000000" fill-opacity="1"><g transform="translate(303.541023, 176.249988)"><g><path d="M 2.625 0 L 2.625 -24.4375 L 7.578125 -24.4375 L 18.890625 -8.515625 C 18.859375 -9.003906 18.835938 -9.546875 18.828125 -10.140625 C 18.816406 -10.734375 18.8125 -11.320312 18.8125 -11.90625 L 18.8125 -24.4375 L 24.046875 -24.4375 L 24.046875 0 L 19.09375 0 L 7.78125 -15.921875 C 7.832031 -15.410156 7.859375 -14.863281 7.859375 -14.28125 C 7.859375 -13.695312 7.859375 -13.125 7.859375 -12.5625 L 7.859375 0 Z M 2.625 0 "/></g></g></g><g fill="#000000" fill-opacity="1"><g transform="translate(74.639564, 217.499986)"><g><path d="M 15.78125 -24.4375 L 25.71875 0 L 20.28125 0 L 18.5 -4.53125 L 7.328125 -4.53125 L 5.546875 0 L 0.109375 0 L 10.046875 -24.4375 Z M 8.96875 -8.9375 L 16.859375 -8.9375 L 13.4375 -17.625 C 13.269531 -18.070312 13.097656 -18.675781 12.921875 -19.4375 C 12.828125 -19.019531 12.738281 -18.675781 12.65625 -18.40625 C 12.570312 -18.144531 12.472656 -17.882812 12.359375 -17.625 Z M 8.96875 -8.9375 "/></g></g></g><g fill="#000000" fill-opacity="1"><g transform="translate(103.825132, 217.499986)"><g><path d="M 2.625 0 L 2.625 -24.4375 L 7.578125 -24.4375 L 18.890625 -8.515625 C 18.859375 -9.003906 18.835938 -9.546875 18.828125 -10.140625 C 18.816406 -10.734375 18.8125 -11.320312 18.8125 -11.90625 L 18.8125 -24.4375 L 24.046875 -24.4375 L 24.046875 0 L 19.09375 0 L 7.78125 -15.921875 C 7.832031 -15.410156 7.859375 -14.863281 7.859375 -14.28125 C 7.859375 -13.695312 7.859375 -13.125 7.859375 -12.5625 L 7.859375 0 Z M 2.625 0 "/></g></g></g><g fill="#000000" fill-opacity="1"><g transform="translate(133.848544, 217.499986)"><g><path d="M 15.78125 -24.4375 L 25.71875 0 L 20.28125 0 L 18.5 -4.53125 L 7.328125 -4.53125 L 5.546875 0 L 0.109375 0 L 10.046875 -24.4375 Z M 8.96875 -8.9375 L 16.859375 -8.9375 L 13.4375 -17.625 C 13.269531 -18.070312 13.097656 -18.675781 12.921875 -19.4375 C 12.828125 -19.019531 12.738281 -18.675781 12.65625 -18.40625 C 12.570312 -18.144531 12.472656 -17.882812 12.359375 -17.625 Z M 8.96875 -8.9375 "/></g></g></g><g fill="#000000" fill-opacity="1"><g transform="translate(163.034112, 217.499986)"><g><path d="M 2.625 0 L 2.625 -24.4375 L 7.859375 -24.4375 L 7.859375 -4.75 L 19.859375 -4.75 L 19.859375 0 Z M 2.625 0 "/></g></g></g><g fill="#000000" fill-opacity="1"><g transform="translate(186.703868, 217.499986)"><g><path d="M 9.671875 0 L 9.671875 -8.65625 L 0.109375 -24.4375 L 6.03125 -24.4375 L 12.28125 -13.515625 L 18.5 -24.4375 L 24.4375 -24.4375 L 14.875 -8.65625 L 14.875 0 Z M 9.671875 0 "/></g></g></g><g fill="#000000" fill-opacity="1"><g transform="translate(214.597764, 217.499986)"><g><path d="M 7.953125 0 L 7.953125 -19.6875 L 0.453125 -19.6875 L 0.453125 -24.4375 L 20.671875 -24.4375 L 20.671875 -19.6875 L 13.1875 -19.6875 L 13.1875 0 Z M 7.953125 0 "/></g></g></g><g fill="#000000" fill-opacity="1"><g transform="translate(239.07046, 217.499986)"><g><path d="M 2.625 0 L 2.625 -24.4375 L 7.859375 -24.4375 L 7.859375 0 Z M 2.625 0 "/></g></g></g><g fill="#000000" fill-opacity="1"><g transform="translate(252.89554, 217.499986)"><g><path d="M 14.453125 0.484375 C 12.816406 0.484375 11.210938 0.234375 9.640625 -0.265625 C 8.078125 -0.765625 6.664062 -1.519531 5.40625 -2.53125 C 4.15625 -3.539062 3.148438 -4.832031 2.390625 -6.40625 C 1.628906 -7.976562 1.25 -9.820312 1.25 -11.9375 C 1.25 -14.164062 1.617188 -16.09375 2.359375 -17.71875 C 3.109375 -19.351562 4.113281 -20.707031 5.375 -21.78125 C 6.632812 -22.851562 8.039062 -23.644531 9.59375 -24.15625 C 11.15625 -24.664062 12.75 -24.921875 14.375 -24.921875 C 15.613281 -24.921875 16.828125 -24.789062 18.015625 -24.53125 C 19.203125 -24.28125 20.328125 -23.890625 21.390625 -23.359375 L 21.390625 -18.328125 C 20.597656 -18.953125 19.660156 -19.425781 18.578125 -19.75 C 17.503906 -20.082031 16.394531 -20.25 15.25 -20.25 C 14.175781 -20.25 13.132812 -20.085938 12.125 -19.765625 C 11.113281 -19.453125 10.195312 -18.957031 9.375 -18.28125 C 8.550781 -17.613281 7.882812 -16.753906 7.375 -15.703125 C 6.875 -14.660156 6.625 -13.40625 6.625 -11.9375 C 6.625 -10.582031 6.867188 -9.414062 7.359375 -8.4375 C 7.847656 -7.46875 8.507812 -6.664062 9.34375 -6.03125 C 10.1875 -5.40625 11.117188 -4.941406 12.140625 -4.640625 C 13.171875 -4.335938 14.207031 -4.1875 15.25 -4.1875 C 16.507812 -4.1875 17.691406 -4.359375 18.796875 -4.703125 C 19.898438 -5.054688 20.828125 -5.5625 21.578125 -6.21875 L 21.578125 -1.078125 C 20.523438 -0.566406 19.398438 -0.179688 18.203125 0.078125 C 17.003906 0.347656 15.753906 0.484375 14.453125 0.484375 Z M 14.453125 0.484375 "/></g></g></g><g fill="#000000" fill-opacity="1"><g transform="translate(279.078819, 217.499986)"><g><path d="M 10.71875 0.484375 C 9.019531 0.484375 7.398438 0.296875 5.859375 -0.078125 C 4.328125 -0.460938 2.929688 -1.003906 1.671875 -1.703125 L 1.671875 -6.703125 C 3.066406 -5.773438 4.507812 -5.113281 6 -4.71875 C 7.488281 -4.320312 8.929688 -4.125 10.328125 -4.125 C 11.753906 -4.125 12.867188 -4.296875 13.671875 -4.640625 C 14.472656 -4.992188 14.875 -5.597656 14.875 -6.453125 C 14.875 -7.109375 14.632812 -7.65625 14.15625 -8.09375 C 13.675781 -8.539062 13.035156 -8.921875 12.234375 -9.234375 C 11.429688 -9.546875 10.554688 -9.859375 9.609375 -10.171875 C 8.671875 -10.484375 7.726562 -10.835938 6.78125 -11.234375 C 5.84375 -11.628906 4.972656 -12.117188 4.171875 -12.703125 C 3.367188 -13.285156 2.726562 -14 2.25 -14.84375 C 1.769531 -15.695312 1.53125 -16.742188 1.53125 -17.984375 C 1.53125 -19.554688 1.9375 -20.851562 2.75 -21.875 C 3.570312 -22.90625 4.660156 -23.671875 6.015625 -24.171875 C 7.378906 -24.671875 8.863281 -24.921875 10.46875 -24.921875 C 11.914062 -24.921875 13.34375 -24.757812 14.75 -24.4375 C 16.15625 -24.113281 17.367188 -23.644531 18.390625 -23.03125 L 18.390625 -18.109375 C 17.367188 -18.859375 16.207031 -19.414062 14.90625 -19.78125 C 13.601562 -20.15625 12.265625 -20.332031 10.890625 -20.3125 C 8.234375 -20.289062 6.90625 -19.535156 6.90625 -18.046875 C 6.90625 -17.441406 7.144531 -16.9375 7.625 -16.53125 C 8.101562 -16.125 8.742188 -15.769531 9.546875 -15.46875 C 10.347656 -15.164062 11.21875 -14.851562 12.15625 -14.53125 C 13.101562 -14.21875 14.046875 -13.863281 14.984375 -13.46875 C 15.929688 -13.070312 16.804688 -12.582031 17.609375 -12 C 18.410156 -11.425781 19.050781 -10.707031 19.53125 -9.84375 C 20.007812 -8.976562 20.25 -7.929688 20.25 -6.703125 C 20.25 -4.859375 19.8125 -3.421875 18.9375 -2.390625 C 18.0625 -1.359375 16.898438 -0.617188 15.453125 -0.171875 C 14.015625 0.265625 12.4375 0.484375 10.71875 0.484375 Z M 10.71875 0.484375 "/></g></g></g><path stroke-linecap="butt" transform="matrix(0.75, 0, 0, 0.75, 34.06902, 230.286167)" fill="none" stroke-linejoin="miter" d="M 0.00172384 3.998652 L 84.434021 3.998652 " stroke="#000000" stroke-width="8" stroke-opacity="1" stroke-miterlimit="4"/><path stroke-linecap="butt" transform="matrix(0, 0.75, -0.75, 0, 37.065178, 174.442489)" fill="none" stroke-linejoin="miter" d="M -0.00144306 3.998362 L 82.462104 3.998362 " stroke="#000000" stroke-width="8" stroke-opacity="1" stroke-miterlimit="4"/><path stroke-linecap="butt" transform="matrix(-0.75, 0, 0, -0.75, 340.923673, 131.644767)" fill="none" stroke-linejoin="miter" d="M 0.00239775 4.000315 L 81.241986 4.000315 " stroke="#000000" stroke-width="8" stroke-opacity="1" stroke-miterlimit="4"/><path stroke-linecap="butt" transform="matrix(0, -0.75, 0.75, 0, 337.92754, 187.488444)" fill="none" stroke-linejoin="miter" d="M 0.000216584 3.997655 L 82.463764 3.997655 " stroke="#000000" stroke-width="8" stroke-opacity="1" stroke-miterlimit="4"/></svg>